<?xml version="1.0" standalone="no"?>
<!DOCTYPE svg PUBLIC "-//W3C//DTD SVG 20010904//EN"
 "http://www.w3.org/TR/2001/REC-SVG-20010904/DTD/svg10.dtd">
<svg version="1.0" xmlns="http://www.w3.org/2000/svg"
 width="64.000000pt" height="64.000000pt" viewBox="0 0 64.000000 64.000000"
 preserveAspectRatio="xMidYMid meet">
<metadata>
Created by potrace 1.14, written by Peter Selinger 2001-2017
</metadata>
<g transform="translate(0.000000,64.000000) scale(0.100000,-0.100000)"
fill="#000000" stroke="none">
<path d="M310 505 c0 -8 9 -15 19 -15 18 0 19 -9 20 -155 0 -115 -3 -155 -12
-155 -8 0 -7 -4 3 -10 12 -8 12 -10 -3 -16 -38 -14 -13 -24 62 -24 84 0 123
17 163 70 51 70 45 221 -12 279 -32 32 -70 41 -172 41 -54 0 -68 -3 -68 -15z
m165 -29 c65 -28 98 -121 75 -216 -14 -57 -51 -96 -105 -106 -42 -8 -72 7 -35
17 23 7 23 7 3 8 -22 1 -22 3 -22 156 l-1 155 25 0 c14 0 41 -6 60 -14z"/>
<path d="M430 453 c0 -4 5 -15 10 -23 8 -13 10 -13 10 2 0 9 -4 20 -10 23 -5
3 -10 3 -10 -2z"/>
<path d="M465 431 c4 -8 2 -17 -6 -22 -10 -6 -11 -9 -1 -9 6 0 12 -8 13 -17 0
-11 3 -13 6 -5 2 6 9 10 14 6 17 -10 9 -24 -13 -25 -22 -1 -22 -1 2 -8 l25 -7
-25 -7 c-37 -10 -40 -9 -34 11 5 14 4 15 -5 2 -16 -23 3 -34 38 -22 29 10 46
0 19 -11 -8 -3 -6 -6 5 -6 11 -1 17 6 17 19 0 11 -3 20 -7 20 -5 0 -9 12 -10
26 0 15 -11 36 -23 48 -13 11 -19 15 -15 7z"/>
<path d="M420 414 c0 -10 5 -26 10 -34 8 -11 9 -7 4 15 -8 37 -14 45 -14 19z"/>
<path d="M430 300 c-8 -5 -10 -10 -5 -10 6 0 17 5 25 10 8 5 11 10 5 10 -5 0
-17 -5 -25 -10z"/>
<path d="M499 283 c-12 -16 -12 -17 2 -6 9 7 20 9 24 5 5 -4 5 -1 1 6 -9 16
-11 15 -27 -5z"/>
<path d="M435 270 c-3 -6 1 -7 9 -4 18 7 21 14 7 14 -6 0 -13 -4 -16 -10z"/>
<path d="M500 255 c-15 -18 -37 -20 -42 -3 -3 8 -6 6 -10 -4 -5 -11 0 -17 18
-21 13 -2 24 0 24 5 0 5 4 7 9 4 5 -3 12 1 15 10 9 23 1 28 -14 9z"/>
<path d="M436 205 c-11 -8 -17 -15 -14 -15 4 0 14 -3 24 -7 11 -4 15 -3 11 4
-4 6 -1 10 6 9 16 -1 21 18 5 21 -7 2 -22 -4 -32 -12z"/>
<path d="M154 487 c-6 -17 2 -37 16 -37 15 0 19 29 5 40 -12 10 -16 9 -21 -3z"/>
<path d="M317 453 c-4 -3 -7 -13 -7 -22 1 -13 3 -13 11 2 11 19 8 33 -4 20z"/>
<path d="M276 421 c-10 -11 -19 -31 -20 -45 0 -14 -4 -26 -8 -26 -5 0 -8 -9
-8 -20 0 -13 6 -20 18 -19 10 0 12 3 5 6 -27 10 -11 21 17 12 16 -6 28 -15 25
-19 -6 -9 25 -23 33 -15 3 3 0 5 -7 5 -8 0 -11 8 -8 19 2 10 0 25 -5 32 -7 11
-8 9 -4 -5 5 -15 2 -17 -16 -12 -13 3 -27 6 -33 7 -5 0 -1 4 10 9 17 7 17 9 3
9 -19 1 -24 16 -9 25 5 4 12 0 14 -6 3 -8 6 -6 6 5 1 9 7 17 14 17 9 0 8 3 -2
9 -7 5 -10 14 -7 20 11 17 1 13 -18 -8z"/>
<path d="M331 418 c0 -9 -4 -25 -7 -35 -5 -17 -5 -17 6 0 6 10 9 25 7 35 -4
15 -5 15 -6 0z"/>
<path d="M130 350 c-13 -9 -13 -12 3 -21 23 -14 26 -166 2 -175 -30 -12 -14
-24 30 -24 25 0 45 5 45 10 0 6 -7 10 -15 10 -12 0 -15 18 -15 105 0 93 -2
105 -17 105 -10 0 -25 -5 -33 -10z"/>
<path d="M234 288 c-4 -7 -4 -10 1 -6 4 4 15 2 24 -5 14 -11 14 -10 2 6 -16
20 -18 21 -27 5z"/>
<path d="M300 276 c0 -2 7 -7 16 -10 8 -3 12 -2 9 4 -6 10 -25 14 -25 6z"/>
<path d="M243 257 c4 -10 7 -21 7 -23 0 -3 5 -2 10 1 9 6 14 -7 11 -27 -2 -14
39 -29 55 -20 13 7 9 12 -18 25 -28 14 -29 17 -11 17 17 0 21 4 16 17 -4 11
-8 12 -11 5 -5 -17 -22 -15 -45 6 -20 16 -20 16 -14 -1z"/>
<path d="M46 163 c-4 -9 0 -23 8 -32 14 -13 16 -13 22 2 7 20 -1 47 -15 47 -5
0 -12 -8 -15 -17z"/>
</g>
</svg>
