<?xml version="1.0" encoding="UTF-8" standalone="no"?>
<!-- Created with Inkscape (http://www.inkscape.org/) -->

<svg
   width="80.171135mm"
   height="26.000002mm"
   viewBox="0 0 80.171134 26.000001"
   version="1.1"
   id="svg5"
   inkscape:version="1.1.2 (0a00cf5339, 2022-02-04)"
   sodipodi:docname="kelvin_id_logo_dark.svg"
   inkscape:export-filename="/home/wemeet/projects/personal/kelvin.id/src/static/brand/kelvin_id_logo_dark.png"
   inkscape:export-xdpi="104.77499"
   inkscape:export-ydpi="104.77499"
   xmlns:inkscape="http://www.inkscape.org/namespaces/inkscape"
   xmlns:sodipodi="http://sodipodi.sourceforge.net/DTD/sodipodi-0.dtd"
   xmlns="http://www.w3.org/2000/svg"
   xmlns:svg="http://www.w3.org/2000/svg">
  <sodipodi:namedview
     id="namedview7"
     pagecolor="#ffffff"
     bordercolor="#666666"
     borderopacity="1.0"
     inkscape:pageshadow="2"
     inkscape:pageopacity="0.0"
     inkscape:pagecheckerboard="0"
     inkscape:document-units="mm"
     showgrid="false"
     inkscape:zoom="2"
     inkscape:cx="146.5"
     inkscape:cy="108.25"
     inkscape:window-width="2486"
     inkscape:window-height="1016"
     inkscape:window-x="0"
     inkscape:window-y="0"
     inkscape:window-maximized="1"
     inkscape:current-layer="g62382"
     fit-margin-top="0"
     fit-margin-left="0"
     fit-margin-right="0"
     fit-margin-bottom="0">
    <inkscape:grid
       type="xygrid"
       id="grid857"
       originx="-108.70942"
       originy="-119.22267" />
  </sodipodi:namedview>
  <defs
     id="defs2" />
  <g
     inkscape:label="Layer 1"
     inkscape:groupmode="layer"
     id="layer1"
     transform="translate(-60.82358,-60.141556)">
    <g
       id="g62382"
       inkscape:export-filename="/home/wemeet/Desktop/kelvin.id/logo/kelvin_id_logo.png"
       inkscape:export-xdpi="104.77499"
       inkscape:export-ydpi="104.77499">
      <rect
         style="fill:#ad3140;fill-opacity:1;stroke:none;stroke-width:1.83676;stroke-opacity:1"
         id="rect100125-9-7"
         width="26.000002"
         height="26.000002"
         x="114.99471"
         y="60.141556"
         ry="6.099256"
         inkscape:export-filename="/home/wemeet/projects/personal/kelvin.id/src/static/brand/kelvin_id_logo_dark.png"
         inkscape:export-xdpi="80"
         inkscape:export-ydpi="80" />
      <g
         id="g28230"
         transform="matrix(0.7273125,0,0,0.7273125,-599.41062,-40.361364)"
         inkscape:export-filename="/home/wemeet/projects/personal/kelvin.id/src/static/brand/kelvin_id_logo_dark.png"
         inkscape:export-xdpi="80"
         inkscape:export-ydpi="80">
        <path
           id="path2272-5-2-9-3"
           style="fill:#d8d8dd;fill-opacity:1;stroke:none;stroke-width:0.0323337;stroke-opacity:1"
           d="m 1002.2627,147.95734 c -0.082,-0.003 -0.139,0.0154 -0.278,0.0636 -0.2168,0.0753 -0.2382,0.0919 -0.401,0.31147 -0.095,0.12755 -0.1781,0.23175 -0.1856,0.23156 -4e-4,-1e-5 -0.01,-0.005 -0.012,-0.006 0,2e-5 -6e-4,0.005 -6e-4,0.005 v 0.53332 c 5e-4,7.6e-4 10e-5,0.004 0.01,0.005 l 0.049,0.0715 -0.051,-0.005 v 0.36975 l 0.067,0.0288 -0.033,0.12477 c -0.015,0.0566 -0.026,0.12234 -0.032,0.18853 v 0.26337 c 0.01,0.0234 0.01,0.0453 0.012,0.063 l 0.027,0.0888 -0.039,-0.0203 v 0.35061 c 0.063,0.12271 0.085,0.20998 0.095,0.32619 l 0.015,0.1837 0.151,-0.22857 c 0.1275,-0.19287 0.211,-0.27197 0.5348,-0.50646 0.211,-0.15283 0.3838,-0.28178 0.384,-0.28664 2e-4,-0.005 -0.079,0.016 -0.1753,0.0464 -0.096,0.0303 -0.2552,0.0804 -0.3525,0.11093 -0.097,0.0306 -0.1917,0.0553 -0.2099,0.0548 -0.018,-3.6e-4 -0.055,-0.0505 -0.081,-0.11139 -0.098,-0.22445 -0.027,-0.5425 0.2074,-0.9333 l 0.1651,-0.27462 -0.1389,-0.004 c -0.2987,-0.008 -0.4043,-0.32873 -0.1862,-0.56587 0.2598,-0.28257 0.2656,-0.28614 0.4883,-0.29425 0.1732,-0.007 0.2366,0.006 0.3817,0.0749 0.096,0.0455 0.2361,0.14404 0.312,0.21916 0.1285,0.12704 0.1561,0.13942 0.3954,0.17683 0.3358,0.0525 0.6357,0.1547 0.7078,0.24114 0.097,0.11668 0.2696,0.44672 0.2441,0.46753 -0.014,0.0108 -0.1268,0.0241 -0.2521,0.0295 -0.1253,0.006 -0.2281,0.0182 -0.2285,0.0284 -2e-4,0.0102 0.1508,0.0747 0.3361,0.1431 l 0.3369,0.12463 0.1347,0.24457 c 0.1095,0.19871 0.1337,0.2752 0.1286,0.40749 l -0.01,0.16288 -0.1527,-0.0696 c -0.1643,-0.0749 -0.1703,-0.0745 -0.2029,0.0159 -0.016,0.0456 0.016,0.0864 0.1366,0.17224 0.1321,0.094 0.1724,0.14946 0.2455,0.33822 0.048,0.12416 0.085,0.27034 0.083,0.32487 -0.01,0.0875 -0.022,0.1054 -0.1539,0.15216 l -0.1495,0.053 0.315,0.0104 0.3151,0.0104 0.2812,0.18101 0.2811,0.181 0.1074,0.26843 c 0.089,0.22284 0.1809,0.67944 0.1428,0.71055 -0.01,0.005 -0.1539,0.0271 -0.3293,0.0497 -0.1754,0.0226 -0.3144,0.0452 -0.3089,0.0503 0.01,0.006 0.1872,0.0536 0.4036,0.10801 0.3587,0.0899 1.1912,0.20838 1.2319,0.17524 0.01,-0.008 -0.1513,-0.0927 -0.3566,-0.1893 l -0.3735,-0.17555 0.038,-0.17448 c 0.035,-0.16487 0.03,-0.18996 -0.089,-0.45674 -0.07,-0.15526 -0.1142,-0.28198 -0.099,-0.28159 0.087,0.003 0.3548,0.24822 0.4873,0.44715 0.1216,0.18257 0.1955,0.2545 0.3698,0.3601 0.2844,0.17225 0.4297,0.32512 0.5129,0.53972 0.1039,0.26806 0.06,0.43525 -0.1537,0.58881 -0.1454,0.10437 -0.1786,0.11554 -0.2853,0.096 -0.066,-0.0122 -0.2624,-0.034 -0.4354,-0.0486 l -0.3145,-0.0264 -0.2441,0.1178 c -0.4282,0.20659 -0.63,0.35547 -0.7951,0.58664 -0.084,0.11699 -0.1524,0.22476 -0.1529,0.23948 2e-4,0.0293 0.1638,0.13822 0.182,0.12002 0.01,-0.006 0.08,-0.0947 0.1646,-0.19676 0.3177,-0.38421 0.544,-0.5193 1.0002,-0.59685 0.273,-0.0464 0.2792,-0.0448 0.6431,0.17087 0.1483,0.0879 0.1919,0.10103 0.2513,0.0754 0.048,-0.0209 0.065,-0.0476 0.05,-0.082 -0.056,-0.13056 -0.047,-0.15951 0.1007,-0.3019 0.084,-0.0811 0.1675,-0.13909 0.1856,-0.12871 0.088,0.0507 0.1863,0.33822 0.1794,0.52545 -0.01,0.16501 -0.023,0.21406 -0.1203,0.33612 -0.1089,0.13747 -0.1193,0.14277 -0.2756,0.13864 -0.2046,-0.006 -0.4634,0.0457 -0.8983,0.17719 -0.2627,0.0794 -0.4119,0.14867 -0.6472,0.30015 -0.1681,0.10827 -0.4112,0.24178 -0.5402,0.29666 -0.2088,0.0889 -0.2633,0.099 -0.4987,0.0928 l -0.2645,-0.007 -0.098,-0.14418 c -0.1254,-0.18488 -0.121,-0.30373 0.025,-0.65796 0.1198,-0.29176 0.1964,-0.58164 0.2042,-0.77281 0.01,-0.13052 -0.2209,-0.57353 -0.488,-0.95563 -0.1123,-0.16074 -0.1592,-0.26012 -0.1564,-0.33197 0.01,-0.20805 0.041,-0.23268 0.4965,-0.37622 0.2339,-0.0736 0.4257,-0.14417 0.4261,-0.15671 4e-4,-0.0126 -0.015,-0.0663 -0.033,-0.11942 l -0.034,-0.0965 -0.3365,0.1426 c -0.185,0.0784 -0.3496,0.14224 -0.3657,0.1418 -0.051,-0.001 -0.2557,-0.42136 -0.3012,-0.61854 -0.053,-0.23053 -0.035,-0.75191 0.039,-1.11746 l 0.053,-0.2649 -0.1314,-0.0498 c -0.073,-0.0275 -0.1988,-0.12099 -0.2816,-0.20851 -0.1206,-0.12764 -0.168,-0.21591 -0.242,-0.45099 -0.056,-0.17852 -0.09,-0.36136 -0.087,-0.46974 l 0.01,-0.17748 -0.076,0.11668 c -0.065,0.0986 -0.074,0.14734 -0.061,0.31479 0.026,0.3345 0.1526,0.63059 0.3491,0.81936 l 0.1707,0.16395 -0.029,0.75964 -0.029,0.75956 0.1329,0.27494 c 0.1185,0.24534 0.1337,0.30742 0.1421,0.57677 0.01,0.2889 0.015,0.3091 0.1373,0.47107 0.1641,0.21728 0.2722,0.42237 0.3605,0.68462 0.094,0.27744 0.065,0.46874 -0.1404,0.94979 -0.1494,0.34963 -0.1574,0.38277 -0.129,0.53338 0.022,0.11799 0.067,0.19879 0.1671,0.30464 0.095,0.10018 0.1306,0.16268 0.1167,0.20519 -0.052,0.15988 -0.12,0.64497 -0.1062,0.76136 0.015,0.12256 0.01,0.13342 -0.094,0.17875 -0.492,0.21614 -0.8515,0.62806 -1.1116,1.27351 -0.1609,0.39921 -0.174,0.4478 -0.1208,0.44921 0.025,5.3e-4 0.1263,-0.15389 0.226,-0.34341 0.1582,-0.30084 0.2161,-0.37627 0.4558,-0.59429 0.3454,-0.31413 0.7545,-0.55301 1.0663,-0.62268 0.1941,-0.0434 0.3335,-0.0481 0.8774,-0.0303 0.7515,0.0248 0.7981,0.0155 1.0532,-0.20785 0.1942,-0.17001 0.2633,-0.20287 0.6086,-0.2898 0.1349,-0.034 0.3704,-0.11349 0.5232,-0.1767 0.2544,-0.10529 0.2841,-0.12707 0.3532,-0.25907 0.042,-0.0792 0.083,-0.13742 0.091,-0.12924 0.053,0.0492 0.1125,0.54058 0.085,0.70061 -0.049,0.27881 -0.2465,0.56159 -0.5151,0.73627 -0.3095,0.2012 -0.3086,0.2002 -0.3423,0.37623 -0.02,0.10639 -0.079,0.22295 -0.1794,0.35552 -0.1357,0.17953 -0.176,0.2091 -0.4486,0.32951 l -0.2995,0.13238 -0.4195,0.004 c -0.3652,0.004 -0.4677,-0.007 -0.7924,-0.081 -0.205,-0.0469 -0.3785,-0.0907 -0.3855,-0.0972 -0.01,-0.006 0.1544,-0.1068 0.3586,-0.22288 0.2043,-0.11607 0.3716,-0.21564 0.3718,-0.22123 4e-4,-0.0137 -0.5303,0.16635 -0.7735,0.26213 -0.1307,0.0516 -0.3245,0.18216 -0.5957,0.40157 -0.4466,0.3613 -1.1805,0.86362 -1.4057,0.96228 -0.118,0.0516 -0.197,0.0619 -0.4092,0.0535 -0.5861,-0.0234 -0.729,-0.11873 -0.8683,-0.5793 -0.1183,-0.3913 -0.1012,-0.73251 0.059,-1.16823 0.1718,-0.46832 0.3669,-0.71733 0.9914,-1.26488 0.3717,-0.32599 0.3685,-0.33327 -0.035,-0.081 -0.1486,0.0929 -0.345,0.18885 -0.4364,0.21321 l -0.166,0.0442 -0.1598,-0.14576 c -0.145,-0.13237 -0.1671,-0.17303 -0.2392,-0.44221 -0.049,-0.18185 -0.083,-0.42482 -0.09,-0.62845 -0.01,-0.32074 0,-0.342 0.1148,-0.62791 0.1726,-0.40774 0.4374,-0.68362 0.8255,-0.8598 0.223,-0.10128 0.249,-0.12002 0.1484,-0.10707 -0.3277,0.0422 -0.4871,0.0964 -0.6634,0.22562 -0.198,0.14512 -0.2645,0.15137 -0.3567,0.0336 -0.068,-0.0872 -0.1171,-0.46676 -0.104,-0.8079 0.01,-0.20738 0.017,-0.22972 0.1788,-0.44191 l 0.1704,-0.22346 -0.1023,-0.0998 c -0.2742,-0.26719 -0.3712,-0.71754 -0.2473,-1.14767 l 0.048,-0.16824 0.3876,-0.19171 c 0.2131,-0.10545 0.3877,-0.19698 0.3879,-0.20337 -3e-4,-0.0314 -0.3433,0.0742 -0.5155,0.15818 -0.2497,0.12169 -0.365,0.19991 -0.4538,0.3324 l 0.018,6.85953 c 0.059,0.18794 0.077,0.38385 0.097,0.83123 0.023,0.51802 0.014,0.64039 -0.093,0.75489 l 0.01,3.47772 c 0.075,0.0427 0.1639,0.0826 0.2584,0.1139 0.1272,0.0422 0.2314,0.073 0.2316,0.0685 2e-4,-0.005 -0.062,-0.048 -0.1377,-0.0969 -0.2463,-0.15849 -0.328,-0.45081 -0.1961,-0.70171 0.046,-0.0872 0.07,-0.10351 0.1335,-0.0894 0.9532,0.21181 1.3325,0.27382 1.6467,0.26914 0.3144,-0.005 0.3472,-0.0118 0.6999,-0.15327 l 0.37,-0.14835 -0.3204,0.26463 c -0.3708,0.30615 -0.5532,0.39375 -1.1414,0.5482 -0.271,0.0713 -0.3588,0.10332 -0.2559,0.0937 0.2807,-0.0263 0.9761,-0.16453 1.1158,-0.22183 0.2073,-0.085 0.6397,-0.37613 0.8316,-0.55988 l 0.1712,-0.16394 0.2694,-0.0141 c 0.3538,-0.0186 0.7599,-0.11816 1.126,-0.27616 l 0.2966,-0.12797 -0.1117,0.11481 c -0.127,0.13045 -0.3845,0.32953 -0.5115,0.39539 -0.047,0.0243 -0.2246,0.0826 -0.3947,0.12913 -0.2591,0.071 -0.369,0.12369 -0.6766,0.32405 -0.202,0.13158 -0.4923,0.29969 -0.6451,0.37354 -0.2614,0.1263 -0.3128,0.13881 -0.8656,0.21092 -0.4121,0.0538 -0.6966,0.0738 -0.9515,0.0671 l -0.3637,-0.01 -0.2893,-0.14734 -0.2892,-0.14734 0.012,0.35787 c 0.024,-0.01 0.045,-0.0166 0.056,-0.0163 0.034,4.4e-4 0.1787,0.0454 0.3207,0.0989 0.2221,0.0836 0.3032,0.0984 0.5781,0.10517 0.4425,0.0107 0.9548,-0.0441 1.3493,-0.14474 0.3993,-0.10191 0.5183,-0.1555 1.0946,-0.49293 0.4748,-0.27803 0.5488,-0.30967 0.8466,-0.36145 0.1057,-0.0184 0.2798,-0.0814 0.3871,-0.14019 0.1072,-0.0588 0.2297,-0.11529 0.2723,-0.1257 0.1156,-0.0283 0.4006,-0.42759 0.4728,-0.66229 0.047,-0.15329 0.1004,-0.23806 0.239,-0.37988 0.361,-0.36927 0.8139,-1.18829 0.8739,-1.58012 0.053,-0.34645 0.1374,-0.57266 0.3468,-0.93009 0.2348,-0.40074 0.2999,-0.57614 0.3702,-0.99721 0.079,-0.47042 0.052,-0.67371 -0.124,-0.94021 l -0.1452,-0.22024 0.077,-0.20867 c 0.1165,-0.31452 0.116,-0.59287 0,-0.88632 -0.086,-0.21395 -0.092,-0.26045 -0.065,-0.44914 0.041,-0.28343 -0.012,-0.50255 -0.1585,-0.65454 -0.1005,-0.10417 -0.1101,-0.12992 -0.085,-0.22843 0.041,-0.15976 0.041,-0.32741 0,-0.52332 -0.026,-0.12917 -0.076,-0.21857 -0.2012,-0.36375 -0.091,-0.10586 -0.1589,-0.20776 -0.1497,-0.22649 0.032,-0.0659 -0.033,-0.37596 -0.1118,-0.53773 -0.046,-0.0947 -0.078,-0.21879 -0.075,-0.29456 0.01,-0.19317 -0.08,-0.44992 -0.2228,-0.66207 -0.097,-0.14391 -0.1442,-0.26758 -0.2024,-0.53265 -0.044,-0.20103 -0.1179,-0.41938 -0.1763,-0.52272 -0.1164,-0.20553 -0.4173,-0.47839 -0.7754,-0.7029 -0.2471,-0.1549 -0.2481,-0.15608 -0.3155,-0.38028 -0.076,-0.25246 -0.1032,-0.29577 -0.3567,-0.56623 -0.1619,-0.1729 -0.2049,-0.19962 -0.4427,-0.27556 -0.1448,-0.0462 -0.3413,-0.0868 -0.4365,-0.0901 -0.1702,-0.006 -0.179,-0.0111 -0.507,-0.29645 l -0.3339,-0.29055 -0.2785,-0.0285 c -0.2589,-0.0265 -0.2988,-0.0404 -0.5669,-0.19826 -0.2315,-0.13621 -0.3368,-0.17829 -0.5331,-0.21278 -0.089,-0.0157 -0.1465,-0.0254 -0.1955,-0.0272 z m 2.5467,1.22989 c 0.057,2.3e-4 0.1205,0.0168 0.2397,0.0554 0.1929,0.0624 0.2404,0.0938 0.3537,0.23403 0.1167,0.1445 0.2841,0.48798 0.251,0.51503 -0.029,0.023 -0.6557,0.10596 -0.6667,0.0882 -0.01,-0.0105 -0.022,-0.0668 -0.034,-0.12494 -0.013,-0.0609 -0.09,-0.17628 -0.1821,-0.27241 -0.1091,-0.11351 -0.166,-0.20399 -0.1784,-0.28361 -0.025,-0.15792 -0.024,-0.15826 0.113,-0.19553 0.039,-0.0105 0.07,-0.0162 0.1038,-0.0161 z m 0.6578,1.052 c 0.2544,0.008 0.28,0.0385 0.8657,0.46294 0.4226,0.3063 0.5213,0.45024 0.6346,0.92562 0.057,0.241 0.1045,0.34885 0.2264,0.52009 0.1527,0.21427 0.1535,0.21676 0.095,0.30803 -0.033,0.0507 -0.063,0.0916 -0.067,0.0911 -0.083,-0.009 -0.2967,-0.13866 -0.313,-0.1892 -0.012,-0.0369 -0.1001,-0.17421 -0.1957,-0.30521 -0.1382,-0.1894 -0.1829,-0.28406 -0.2181,-0.46226 -0.072,-0.36377 -0.1599,-0.53968 -0.3808,-0.76077 l -0.201,-0.20134 -0.071,0.0702 -0.071,0.0702 0.1368,0.10853 c 0.2188,0.1734 0.4155,0.62648 0.3398,0.78241 -0.029,0.0593 -0.2984,-0.007 -0.3709,-0.0905 -0.029,-0.0341 -0.2038,-0.13527 -0.3872,-0.22479 l -0.3334,-0.16278 -0.072,-0.1879 c -0.039,-0.10336 -0.095,-0.22189 -0.1244,-0.26334 -0.046,-0.0654 -0.047,-0.10353 0,-0.28905 l 0.049,-0.21371 0.3364,0.009 c 0.048,0.001 0.089,0.002 0.1254,0.004 z m -2.6369,1.62682 c -0.042,0.009 -0.2349,0.20759 -0.3041,0.31643 -0.041,0.0643 -0.094,0.18587 -0.1183,0.27022 -0.024,0.0843 -0.118,0.25535 -0.2085,0.38002 l -0.1647,0.22669 0.1554,-0.11984 c 0.2091,-0.16116 0.5379,-0.29833 0.7149,-0.29813 0.078,4e-5 0.1884,-0.008 0.2461,-0.0172 0.09,-0.015 0.072,-0.0232 -0.1333,-0.0588 -0.1309,-0.0229 -0.2509,-0.0536 -0.2667,-0.0682 -0.047,-0.0439 -0.026,-0.31379 0.038,-0.47204 0.033,-0.0813 0.055,-0.15241 0.048,-0.15806 0,-7.5e-4 -0.01,-0.002 -0.01,-6.9e-4 z m 5.1319,3.15728 c 0.028,-0.003 0.046,0.01 0.076,0.0351 0.035,0.0293 0.086,0.12795 0.1123,0.21926 0.048,0.16086 0.031,0.3086 -0.062,0.55954 -0.067,0.18272 -0.522,0.42954 -0.8846,0.48062 -0.2071,0.0291 -0.2251,0.0395 -0.5848,0.33384 l -0.3711,0.3037 -0.2432,-0.01 c -0.1427,-0.005 -0.3565,-0.0417 -0.5177,-0.0874 -0.2793,-0.0792 -0.7797,-0.12879 -0.8845,-0.0878 -0.094,0.0369 -0.033,-0.43008 0.087,-0.6616 0.1037,-0.2 0.085,-0.19327 0.3745,-0.13509 0.035,0.007 0.1721,-0.002 0.3048,-0.0206 0.221,-0.0306 0.2767,-0.0551 0.6608,-0.29183 0.6376,-0.39279 0.729,-0.42826 1.2212,-0.47364 0.311,-0.0287 0.4569,-0.057 0.5708,-0.11066 0.072,-0.0341 0.1115,-0.0516 0.1399,-0.054 z m -4.2173,0.36829 c -0.01,-0.009 -1.0101,0.13335 -1.1056,0.15694 -0.056,0.0138 -0.06,0.0295 -0.033,0.1134 0.017,0.0536 0.037,0.11474 0.043,0.1358 0.01,0.0258 0.1916,-0.0336 0.5576,-0.18021 0.3,-0.12019 0.542,-0.22184 0.5375,-0.22593 z m 4.4867,1.959 0.078,0.12462 c 0.1463,0.23437 0.1767,0.34354 0.171,0.61582 -0.01,0.30194 -0.085,0.50588 -0.3802,0.97906 -0.1929,0.30957 -0.4012,0.53094 -0.7931,0.84233 -0.4023,0.31982 -0.6429,0.46851 -0.9718,0.60067 -0.2632,0.10583 -0.3133,0.11574 -0.5541,0.10934 -0.256,-0.007 -0.2693,-0.0109 -0.4116,-0.12453 l -0.147,-0.11745 0.1003,-0.24717 c 0.1376,-0.33931 0.1384,-0.49238 0,-0.73179 -0.09,-0.15953 -0.1298,-0.19882 -0.2395,-0.23516 -0.073,-0.0239 -0.138,-0.0386 -0.1456,-0.0324 -0.01,0.006 0.037,0.099 0.099,0.2063 0.1603,0.27715 0.1756,0.52173 0.048,0.76638 -0.1512,0.28955 -0.2823,0.37151 -1.1942,0.74694 -0.3007,0.12383 -0.6976,0.29637 -0.8818,0.38344 -0.1843,0.0871 -0.4377,0.18038 -0.5632,0.20735 l -0.2281,0.049 0.2382,-0.01 c 0.1958,-0.008 0.3581,-0.0499 0.9112,-0.23528 0.3701,-0.12403 0.8902,-0.30836 1.1555,-0.4097 l 0.4825,-0.18425 0.2847,0.0859 c 0.5302,0.15994 0.583,0.16752 0.8091,0.11688 0.112,-0.0251 0.305,-0.0824 0.429,-0.12731 0.124,-0.0448 0.2409,-0.0812 0.2598,-0.0807 0.078,0.003 -0.023,0.22059 -0.1784,0.38537 -0.2248,0.23766 -0.6694,0.45797 -1.0229,0.50694 -0.1369,0.019 -0.2671,0.034 -0.2894,0.0334 -0.022,-3.2e-4 -0.07,-0.0866 -0.106,-0.19123 -0.083,-0.24083 -0.085,-0.24355 -0.2594,-0.30712 -0.1601,-0.0584 -0.1777,-0.0488 -0.085,0.0472 0.034,0.0352 0.082,0.16302 0.1066,0.2842 l 0.045,0.22031 -0.1217,0.19989 c -0.1912,0.31439 -0.4719,0.56327 -0.8521,0.75556 -0.2595,0.13122 -0.3789,0.1725 -0.572,0.19781 -0.3155,0.0412 -0.4754,0.0337 -0.9233,-0.0432 -0.3248,-0.0559 -0.3945,-0.0795 -0.6015,-0.20404 -0.3007,-0.18087 -0.3651,-0.31276 -0.3161,-0.64698 0.031,-0.21181 0.036,-0.21998 0.1528,-0.2647 0.067,-0.0254 0.1212,-0.0579 0.1217,-0.0721 4e-4,-0.0143 -0.062,-0.0526 -0.1382,-0.0852 -0.3751,-0.15931 -0.3813,-0.72299 -0.018,-1.27696 0.058,-0.0883 0.1072,-0.17857 0.108,-0.20057 -3e-4,-0.0313 0.059,-0.0345 0.2701,-0.0148 0.2099,0.0197 0.3316,0.0131 0.5573,-0.0304 0.2828,-0.0542 0.2964,-0.0612 0.674,-0.34054 0.5975,-0.44209 0.963,-0.68674 1.2498,-0.83669 l 0.2633,-0.13761 0.485,0.0799 c 0.2668,0.0439 0.6094,0.0926 0.7615,0.10807 l 0.2765,0.0282 0.016,0.2417 c 0.023,0.3566 0.027,0.35778 0.1066,0.0446 l 0.074,-0.28811 0.2136,-0.0501 c 0.1527,-0.0358 0.2752,-0.0935 0.43,-0.2025 l 0.2165,-0.15244 0.1109,0.11473 c 0.1004,0.10378 0.1092,0.10746 0.094,0.0388 -0.01,-0.0417 -0.023,-0.17893 -0.031,-0.30491 -0.019,-0.34808 0.057,-0.50189 0.3702,-0.74363 z m -0.4257,2.60391 c 0.01,-8.2e-4 0.01,6.7e-4 0.01,0.007 -0.01,0.13493 -0.3997,0.95486 -0.6284,1.30601 -0.1486,0.228 -0.4262,0.48826 -0.793,0.74334 -0.2291,0.15935 -0.2953,0.18769 -0.6187,0.26466 -0.2734,0.0651 -0.4274,0.0845 -0.6294,0.0792 -0.147,-0.005 -0.2671,-0.014 -0.2668,-0.0223 3e-4,-0.008 0.091,-0.12821 0.2004,-0.26616 l 0.1996,-0.25079 0.2069,0.006 c 0.1444,0.005 0.2977,-0.0204 0.5067,-0.0799 0.2797,-0.0797 0.3141,-0.0989 0.5174,-0.29086 0.2616,-0.24716 0.4232,-0.49442 0.4979,-0.76169 0.04,-0.1448 0.077,-0.20986 0.1362,-0.24134 0.191,-0.10201 0.4455,-0.28718 0.5549,-0.40389 0.049,-0.0519 0.09,-0.0856 0.1077,-0.0889 z m -5.4687,1.79001 -0.04,0.0907 c -0.022,0.0498 -0.041,0.10128 -0.041,0.11425 2e-4,0.0234 0.3422,0.10724 0.6714,0.16407 0.2527,0.0437 0.4749,0.0489 0.7435,0.0175 0.2202,-0.0256 0.253,-0.0394 0.4124,-0.17386 0.1509,-0.12717 0.162,-0.14411 0.086,-0.13121 -0.4937,0.0836 -1.2895,0.0681 -1.6535,-0.0323 z" />
        <path
           id="path2272-5-1-6-4-5"
           style="fill:#a5a5b0;fill-opacity:1;stroke:none;stroke-width:0.0323337;stroke-opacity:1"
           d="m 1000.5705,147.95734 c 0.082,-0.003 0.1391,0.0154 0.2781,0.0636 0.2167,0.0753 0.2382,0.0919 0.4009,0.31147 0.095,0.12755 0.1782,0.23175 0.1857,0.23156 3e-4,-1e-5 0.01,-0.005 0.011,-0.006 0,2e-5 5e-4,0.005 5e-4,0.005 v 0.53332 c -4e-4,7.6e-4 0,0.004 -0.01,0.005 l -0.049,0.0715 0.051,-0.005 v 0.36975 l -0.066,0.0288 0.034,0.12477 c 0.015,0.0566 0.025,0.12234 0.032,0.18853 v 0.26337 c -0.01,0.0234 -0.01,0.0453 -0.012,0.063 l -0.027,0.0888 0.039,-0.0203 v 0.35061 c -0.063,0.12271 -0.085,0.20998 -0.095,0.32619 l -0.015,0.1837 -0.1511,-0.22857 c -0.1274,-0.19287 -0.211,-0.27197 -0.5347,-0.50646 -0.2111,-0.15283 -0.3839,-0.28178 -0.3841,-0.28664 -2e-4,-0.005 0.079,0.016 0.1753,0.0464 0.097,0.0303 0.2553,0.0804 0.3525,0.11093 0.097,0.0306 0.1917,0.0553 0.2099,0.0548 0.018,-3.6e-4 0.055,-0.0505 0.081,-0.11139 0.098,-0.22445 0.027,-0.5425 -0.2074,-0.9333 l -0.165,-0.27462 0.1388,-0.004 c 0.2987,-0.008 0.4043,-0.32873 0.1862,-0.56587 -0.2598,-0.28257 -0.2656,-0.28614 -0.4883,-0.29425 -0.1732,-0.007 -0.2366,0.006 -0.3816,0.0749 -0.096,0.0455 -0.23616,0.14404 -0.31208,0.21916 -0.1285,0.12704 -0.15612,0.13942 -0.39541,0.17683 -0.33582,0.0525 -0.63574,0.1547 -0.70784,0.24114 -0.0973,0.11668 -0.26956,0.44672 -0.24404,0.46753 0.0136,0.0108 0.12674,0.0241 0.25208,0.0295 0.1253,0.006 0.22813,0.0182 0.22848,0.0284 2.5e-4,0.0102 -0.15081,0.0747 -0.33609,0.1431 l -0.33685,0.12463 -0.13479,0.24457 c -0.10945,0.19871 -0.13368,0.2752 -0.1286,0.40749 l 0.007,0.16288 0.15273,-0.0696 c 0.1643,-0.0749 0.17027,-0.0745 0.20285,0.0159 0.0165,0.0456 -0.0157,0.0864 -0.13655,0.17224 -0.13218,0.094 -0.17243,0.14946 -0.24553,0.33822 -0.0479,0.12416 -0.0853,0.27034 -0.083,0.32487 0.006,0.0875 0.0216,0.1054 0.15391,0.15216 l 0.14951,0.053 -0.31496,0.0104 -0.31509,0.0104 -0.28122,0.18101 -0.28115,0.181 -0.10733,0.26843 c -0.0892,0.22284 -0.18094,0.67944 -0.1428,0.71055 0.007,0.005 0.15391,0.0271 0.32932,0.0497 0.17534,0.0226 0.3144,0.0452 0.30885,0.0503 -0.007,0.006 -0.18716,0.0536 -0.40362,0.10801 -0.35868,0.0899 -1.19116,0.20838 -1.23183,0.17524 -0.01,-0.008 0.15124,-0.0927 0.35658,-0.1893 l 0.37343,-0.17555 -0.0374,-0.17448 c -0.0349,-0.16487 -0.03,-0.18996 0.0892,-0.45674 0.0695,-0.15526 0.11427,-0.28198 0.0995,-0.28159 -0.0868,0.003 -0.3548,0.24822 -0.48729,0.44715 -0.12164,0.18257 -0.19554,0.2545 -0.36986,0.3601 -0.28437,0.17225 -0.42966,0.32512 -0.51283,0.53972 -0.10396,0.26806 -0.0601,0.43525 0.15362,0.58881 0.14542,0.10437 0.17862,0.11554 0.28534,0.096 0.0664,-0.0122 0.26236,-0.034 0.43536,-0.0486 l 0.31453,-0.0264 0.24414,0.1178 c 0.42821,0.20659 0.62998,0.35547 0.79506,0.58664 0.0835,0.11699 0.15238,0.22476 0.15295,0.23948 -2.5e-4,0.0293 -0.16382,0.13822 -0.18203,0.12002 -0.007,-0.006 -0.0804,-0.0947 -0.16462,-0.19676 -0.31771,-0.38421 -0.54404,-0.5193 -1.00018,-0.59685 -0.27305,-0.0464 -0.27924,-0.0448 -0.64309,0.17087 -0.14834,0.0879 -0.19195,0.10103 -0.25136,0.0754 -0.0484,-0.0209 -0.0647,-0.0476 -0.0499,-0.082 0.0563,-0.13056 0.0469,-0.15951 -0.10068,-0.3019 -0.084,-0.0811 -0.16752,-0.13909 -0.18561,-0.12871 -0.0881,0.0507 -0.18635,0.33822 -0.17943,0.52545 0.009,0.16501 0.0234,0.21406 0.12031,0.33612 0.10884,0.13747 0.11932,0.14277 0.27556,0.13864 0.2046,-0.006 0.46341,0.0457 0.89831,0.17719 0.26271,0.0794 0.41195,0.14867 0.64719,0.30015 0.16817,0.10827 0.41127,0.24178 0.5402,0.29666 0.20885,0.0889 0.26333,0.099 0.49875,0.0928 l 0.26444,-0.007 0.0978,-0.14418 c 0.12538,-0.18488 0.12097,-0.30373 -0.0247,-0.65796 -0.11987,-0.29176 -0.19643,-0.58164 -0.2042,-0.77281 -0.006,-0.13052 0.2209,-0.57353 0.48796,-0.95563 0.11231,-0.16074 0.15918,-0.26012 0.15643,-0.33197 -0.007,-0.20805 -0.0409,-0.23268 -0.49648,-0.37622 -0.23389,-0.0736 -0.42569,-0.14417 -0.42618,-0.15671 -3.9e-4,-0.0126 0.015,-0.0663 0.0335,-0.11942 l 0.0345,-0.0965 0.33641,0.1426 c 0.18503,0.0784 0.34964,0.14224 0.36574,0.1418 0.0512,-0.001 0.25566,-0.42136 0.30125,-0.61854 0.0531,-0.23053 0.0351,-0.75191 -0.0389,-1.11746 l -0.0536,-0.2649 0.13147,-0.0498 c 0.0726,-0.0275 0.19878,-0.12099 0.28157,-0.20851 0.12065,-0.12764 0.16802,-0.21591 0.24196,-0.45099 0.056,-0.17852 0.09,-0.36136 0.0866,-0.46974 l -0.006,-0.17748 0.0763,0.11668 c 0.0647,0.0986 0.0742,0.14734 0.0609,0.31479 -0.0265,0.3345 -0.15269,0.63059 -0.34913,0.81936 l -0.17069,0.16395 0.0291,0.75964 0.0291,0.75956 -0.13288,0.27494 c -0.11851,0.24534 -0.13376,0.30742 -0.14214,0.57677 -0.009,0.2889 -0.0151,0.3091 -0.13728,0.47107 -0.16412,0.21728 -0.27215,0.42237 -0.36048,0.68462 -0.0935,0.27744 -0.0652,0.46874 0.14035,0.94979 0.14946,0.34963 0.15748,0.38277 0.12905,0.53338 -0.0223,0.11799 -0.0665,0.19879 -0.1671,0.30464 -0.0951,0.10018 -0.13062,0.16268 -0.11672,0.20519 0.0524,0.15988 0.12004,0.64497 0.10617,0.76136 -0.0148,0.12256 -0.008,0.13342 0.0945,0.17875 0.49198,0.21614 0.85148,0.62806 1.11154,1.27351 0.16091,0.39921 0.17398,0.4478 0.12084,0.44921 -0.0247,5.3e-4 -0.12632,-0.15389 -0.22597,-0.34341 -0.15825,-0.30084 -0.21619,-0.37627 -0.45584,-0.59429 -0.34545,-0.31413 -0.75449,-0.55301 -1.0663,-0.62268 -0.19415,-0.0434 -0.33352,-0.0481 -0.87737,-0.0303 -0.75158,0.0248 -0.79809,0.0155 -1.05326,-0.20785 -0.19418,-0.17001 -0.26328,-0.20287 -0.6086,-0.2898 -0.13487,-0.034 -0.37034,-0.11349 -0.52316,-0.1767 -0.25442,-0.10529 -0.28416,-0.12707 -0.35318,-0.25907 -0.0411,-0.0792 -0.0823,-0.13742 -0.0917,-0.12924 -0.0533,0.0492 -0.11241,0.54058 -0.0842,0.70061 0.0486,0.27881 0.24652,0.56159 0.51511,0.73627 0.30942,0.2012 0.30859,0.2002 0.34229,0.37623 0.0204,0.10639 0.0792,0.22295 0.17939,0.35552 0.13568,0.17953 0.176,0.2091 0.44861,0.32951 l 0.29944,0.13238 0.41952,0.004 c 0.3652,0.004 0.46776,-0.007 0.79237,-0.081 0.20501,-0.0469 0.37855,-0.0907 0.38554,-0.0972 0.007,-0.006 -0.15436,-0.1068 -0.35863,-0.22288 -0.20426,-0.11607 -0.37154,-0.21564 -0.37173,-0.22123 -4.1e-4,-0.0137 0.5303,0.16635 0.77348,0.26213 0.13069,0.0516 0.3245,0.18216 0.59568,0.40157 0.44658,0.3613 1.18047,0.86362 1.40571,0.96228 0.118,0.0516 0.197,0.0619 0.4092,0.0535 0.5861,-0.0234 0.729,-0.11873 0.8683,-0.5793 0.1183,-0.3913 0.1012,-0.73251 -0.059,-1.16823 -0.1718,-0.46832 -0.3669,-0.71733 -0.9914,-1.26488 -0.37167,-0.32599 -0.36853,-0.33327 0.035,-0.081 0.1486,0.0929 0.345,0.18885 0.4364,0.21321 l 0.166,0.0442 0.1598,-0.14576 c 0.1451,-0.13237 0.1671,-0.17303 0.2393,-0.44221 0.049,-0.18185 0.083,-0.42482 0.09,-0.62845 0.01,-0.32074 0,-0.342 -0.1148,-0.62791 -0.1725,-0.40774 -0.4374,-0.68362 -0.8255,-0.8598 -0.223,-0.10128 -0.249,-0.12002 -0.1483,-0.10707 0.3276,0.0422 0.4871,0.0964 0.6634,0.22562 0.198,0.14512 0.2645,0.15137 0.3566,0.0336 0.068,-0.0872 0.1171,-0.46676 0.1041,-0.8079 -0.01,-0.20738 -0.017,-0.22972 -0.1788,-0.44191 l -0.1705,-0.22346 0.1024,-0.0998 c 0.2741,-0.26719 0.3711,-0.71754 0.2473,-1.14767 l -0.049,-0.16824 -0.3876,-0.19171 c -0.2131,-0.10545 -0.3877,-0.19698 -0.3879,-0.20337 2e-4,-0.0314 0.3432,0.0742 0.5154,0.15818 0.2498,0.12169 0.3651,0.19991 0.4539,0.3324 l -0.018,6.85953 c -0.059,0.18794 -0.078,0.38385 -0.097,0.83123 -0.022,0.51802 -0.014,0.64039 0.093,0.75489 l -0.01,3.47772 c -0.075,0.0427 -0.164,0.0826 -0.2585,0.1139 -0.1272,0.0422 -0.2314,0.073 -0.2316,0.0685 -2e-4,-0.005 0.062,-0.048 0.1377,-0.0969 0.2463,-0.15849 0.328,-0.45081 0.1961,-0.70171 -0.046,-0.0872 -0.07,-0.10351 -0.1335,-0.0894 -0.9532,0.21181 -1.33253,0.27382 -1.64671,0.26914 -0.3144,-0.005 -0.34717,-0.0118 -0.69988,-0.15327 l -0.37003,-0.14835 0.32043,0.26463 c 0.37074,0.30615 0.55324,0.39375 1.14136,0.5482 0.27103,0.0713 0.35893,0.10332 0.25593,0.0937 -0.28067,-0.0263 -0.97607,-0.16453 -1.11581,-0.22183 -0.20724,-0.085 -0.63965,-0.37613 -0.83157,-0.55988 l -0.1712,-0.16394 -0.26938,-0.0141 c -0.35383,-0.0186 -0.75993,-0.11816 -1.12606,-0.27616 l -0.29658,-0.12797 0.11174,0.11481 c 0.12691,0.13045 0.38443,0.32953 0.51144,0.39539 0.0473,0.0243 0.2246,0.0826 0.39475,0.12913 0.25909,0.071 0.36901,0.12369 0.67662,0.32405 0.20199,0.13158 0.49222,0.29969 0.64506,0.37354 0.26141,0.1263 0.31277,0.13881 0.86562,0.21092 0.41202,0.0538 0.69657,0.0738 0.95147,0.0671 l 0.3638,-0.01 0.2892,-0.14734 0.2893,-0.14734 -0.011,0.35787 c -0.024,-0.01 -0.045,-0.0166 -0.055,-0.0163 -0.035,4.4e-4 -0.1787,0.0454 -0.3208,0.0989 -0.2221,0.0836 -0.3032,0.0984 -0.5781,0.10517 -0.44242,0.0107 -0.95481,-0.0441 -1.34927,-0.14474 -0.39926,-0.10191 -0.51833,-0.1555 -1.09459,-0.49293 -0.47477,-0.27803 -0.54879,-0.30967 -0.8466,-0.36145 -0.10569,-0.0184 -0.27984,-0.0814 -0.38712,-0.14019 -0.1072,-0.0588 -0.2297,-0.11529 -0.27223,-0.1257 -0.1156,-0.0283 -0.40066,-0.42759 -0.47281,-0.66229 -0.0472,-0.15329 -0.10045,-0.23806 -0.23906,-0.37988 -0.36097,-0.36927 -0.81387,-1.18829 -0.87391,-1.58012 -0.0533,-0.34645 -0.13738,-0.57266 -0.34678,-0.93009 -0.23483,-0.40074 -0.29982,-0.57614 -0.37015,-0.99721 -0.0786,-0.47042 -0.0514,-0.67371 0.12391,-0.94021 l 0.14524,-0.22024 -0.0776,-0.20867 c -0.11653,-0.31452 -0.11606,-0.59287 0,-0.88632 0.086,-0.21395 0.0926,-0.26045 0.0645,-0.44914 -0.0412,-0.28343 0.0122,-0.50255 0.15852,-0.65454 0.10053,-0.10417 0.11007,-0.12992 0.0851,-0.22843 -0.0412,-0.15976 -0.0412,-0.32741 0,-0.52332 0.0262,-0.12917 0.0757,-0.21857 0.20126,-0.36375 0.0914,-0.10586 0.15885,-0.20776 0.14972,-0.22649 -0.0319,-0.0659 0.0324,-0.37596 0.11181,-0.53773 0.0464,-0.0947 0.0781,-0.21879 0.0755,-0.29456 -0.007,-0.19317 0.0796,-0.44992 0.22275,-0.66207 0.0972,-0.14391 0.14419,-0.26758 0.20245,-0.53265 0.044,-0.20103 0.11785,-0.41938 0.17632,-0.52272 0.11633,-0.20553 0.41722,-0.47839 0.77532,-0.7029 0.24712,-0.1549 0.24809,-0.15608 0.31554,-0.38028 0.0758,-0.25246 0.10316,-0.29577 0.35666,-0.56623 0.16198,-0.1729 0.20493,-0.19962 0.44277,-0.27556 0.1448,-0.0462 0.34125,-0.0868 0.4365,-0.0901 0.17013,-0.006 0.179,-0.0111 0.50693,-0.29645 l 0.3339,-0.29055 0.27851,-0.0285 c 0.25897,-0.0265 0.29881,-0.0404 0.56697,-0.19826 0.23144,-0.13621 0.33684,-0.17829 0.53304,-0.21278 0.089,-0.0157 0.1465,-0.0254 0.1955,-0.0272 z m -2.54667,1.22989 c -0.0565,2.3e-4 -0.12048,0.0168 -0.23969,0.0554 -0.1929,0.0624 -0.24041,0.0938 -0.35372,0.23403 -0.1167,0.1445 -0.28407,0.48798 -0.25095,0.51503 0.0284,0.023 0.65564,0.10596 0.6667,0.0882 0.007,-0.0105 0.0219,-0.0668 0.0342,-0.12494 0.0128,-0.0609 0.0898,-0.17628 0.18218,-0.27241 0.1091,-0.11351 0.16597,-0.20399 0.17834,-0.28361 0.025,-0.15792 0.024,-0.15826 -0.11297,-0.19553 -0.0387,-0.0105 -0.0699,-0.0162 -0.10377,-0.0161 z m -0.65778,1.052 c -0.2544,0.008 -0.27998,0.0385 -0.86567,0.46294 -0.4226,0.3063 -0.52133,0.45024 -0.63467,0.92562 -0.0572,0.241 -0.10447,0.34885 -0.22642,0.52009 -0.15267,0.21427 -0.15347,0.21676 -0.0948,0.30803 0.0326,0.0507 0.0629,0.0916 0.0671,0.0911 0.0826,-0.009 0.29667,-0.13866 0.31302,-0.1892 0.0119,-0.0369 0.10003,-0.17421 0.19565,-0.30521 0.13825,-0.1894 0.18288,-0.28406 0.21811,-0.46226 0.0721,-0.36377 0.15994,-0.53968 0.38082,-0.76077 l 0.20103,-0.20134 0.0711,0.0702 0.0709,0.0702 -0.13684,0.10853 c -0.21871,0.1734 -0.41546,0.62648 -0.33972,0.78241 0.0286,0.0593 0.29832,-0.007 0.37089,-0.0905 0.0295,-0.0341 0.20372,-0.13527 0.38712,-0.22479 l 0.33349,-0.16278 0.0715,-0.1879 c 0.0392,-0.10336 0.0953,-0.22189 0.12443,-0.26334 0.0461,-0.0654 0.0465,-0.10353 0.003,-0.28905 l -0.0488,-0.21371 -0.33643,0.009 c -0.0481,0.001 -0.0889,0.002 -0.12537,0.004 z m 2.63685,1.62682 c 0.042,0.009 0.235,0.20759 0.3041,0.31643 0.041,0.0643 0.094,0.18587 0.1183,0.27022 0.024,0.0843 0.1181,0.25535 0.2086,0.38002 l 0.1647,0.22669 -0.1555,-0.11984 c -0.209,-0.16116 -0.5379,-0.29833 -0.71486,-0.29813 -0.0777,4e-5 -0.18845,-0.008 -0.24606,-0.0172 -0.0903,-0.015 -0.072,-0.0232 0.13323,-0.0588 0.13089,-0.0229 0.25099,-0.0536 0.26669,-0.0682 0.047,-0.0439 0.026,-0.31379 -0.038,-0.47204 -0.032,-0.0813 -0.0545,-0.15241 -0.0478,-0.15806 10e-6,-7.5e-4 0.007,-0.002 0.007,-6.9e-4 z m -5.13185,3.15728 c -0.0281,-0.003 -0.0458,0.01 -0.0767,0.0351 -0.0346,0.0293 -0.0851,0.12795 -0.11232,0.21926 -0.0477,0.16086 -0.0309,0.3086 0.0627,0.55954 0.0673,0.18272 0.52206,0.42954 0.88469,0.48062 0.20704,0.0291 0.22504,0.0395 0.58473,0.33384 l 0.3711,0.3037 0.24318,-0.01 c 0.14275,-0.005 0.35656,-0.0417 0.51777,-0.0874 0.27923,-0.0792 0.77968,-0.12879 0.88446,-0.0878 0.0944,0.0369 0.0332,-0.43008 -0.0874,-0.6616 -0.10372,-0.2 -0.0851,-0.19327 -0.3745,-0.13509 -0.0352,0.007 -0.17214,-0.002 -0.30483,-0.0206 -0.22098,-0.0306 -0.27669,-0.0551 -0.66082,-0.29183 -0.63763,-0.39279 -0.72901,-0.42826 -1.22117,-0.47364 -0.31101,-0.0287 -0.45694,-0.057 -0.57078,-0.11066 -0.0725,-0.0341 -0.11152,-0.0516 -0.13995,-0.054 z m 4.21732,0.36829 c 0.008,-0.009 1.01003,0.13335 1.10553,0.15694 0.056,0.0138 0.06,0.0295 0.033,0.1134 -0.017,0.0536 -0.037,0.11474 -0.043,0.1358 -0.01,0.0258 -0.19155,-0.0336 -0.55752,-0.18021 -0.30007,-0.12019 -0.54201,-0.22184 -0.53758,-0.22593 z m -4.48675,1.959 -0.0776,0.12462 c -0.14636,0.23437 -0.17666,0.34354 -0.17105,0.61582 0.009,0.30194 0.0851,0.50588 0.38025,0.97906 0.19294,0.30957 0.40124,0.53094 0.7931,0.84233 0.40238,0.31982 0.64292,0.46851 0.97178,0.60067 0.26327,0.10583 0.31335,0.11574 0.5541,0.10934 0.256,-0.007 0.26936,-0.0109 0.41162,-0.12453 l 0.14704,-0.11745 -0.10032,-0.24717 c -0.13761,-0.33931 -0.13841,-0.49238 -0.004,-0.73179 0.0898,-0.15953 0.12975,-0.19882 0.23947,-0.23516 0.0725,-0.0239 0.13799,-0.0386 0.1456,-0.0324 0.007,0.006 -0.0371,0.099 -0.0992,0.2063 -0.16023,0.27715 -0.17554,0.52173 -0.0476,0.76638 0.15121,0.28955 0.28231,0.37151 1.1942,0.74694 0.30076,0.12383 0.69759,0.29637 0.88184,0.38344 0.18435,0.0871 0.43775,0.18038 0.56315,0.20735 l 0.2281,0.049 -0.2381,-0.01 c -0.1958,-0.008 -0.3582,-0.0499 -0.91128,-0.23528 -0.37011,-0.12403 -0.89016,-0.30836 -1.15553,-0.4097 l -0.48247,-0.18425 -0.28466,0.0859 c -0.53022,0.15994 -0.58305,0.16752 -0.8091,0.11688 -0.11204,-0.0251 -0.30507,-0.0824 -0.42902,-0.12731 -0.12401,-0.0448 -0.24089,-0.0812 -0.25984,-0.0807 -0.0785,0.003 0.0228,0.22059 0.17841,0.38537 0.22482,0.23766 0.66939,0.45797 1.02296,0.50694 0.13683,0.019 0.26706,0.034 0.28932,0.0334 0.0221,-3.2e-4 0.07,-0.0866 0.10603,-0.19123 0.083,-0.24083 0.0851,-0.24355 0.2594,-0.30712 0.16015,-0.0584 0.17773,-0.0488 0.0852,0.0472 -0.034,0.0352 -0.0817,0.16302 -0.10655,0.2842 l -0.0448,0.22031 0.12164,0.19989 c 0.19117,0.31439 0.47188,0.56327 0.85213,0.75556 0.25949,0.13122 0.37885,0.1725 0.57202,0.19781 0.31548,0.0412 0.47539,0.0337 0.92324,-0.0432 0.3249,-0.0559 0.3945,-0.0795 0.6015,-0.20404 0.3007,-0.18087 0.3651,-0.31276 0.3161,-0.64698 -0.031,-0.21181 -0.036,-0.21998 -0.1528,-0.2647 -0.066,-0.0254 -0.1211,-0.0579 -0.1217,-0.0721 -3e-4,-0.0143 0.062,-0.0526 0.1383,-0.0852 0.375,-0.15931 0.3813,-0.72299 0.018,-1.27696 -0.058,-0.0883 -0.1071,-0.17857 -0.108,-0.20057 3e-4,-0.0313 -0.059,-0.0345 -0.2701,-0.0148 -0.2099,0.0197 -0.3316,0.0131 -0.5572,-0.0304 -0.2829,-0.0542 -0.29648,-0.0612 -0.67407,-0.34054 -0.59748,-0.44209 -0.96299,-0.68674 -1.2498,-0.83669 l -0.26327,-0.13761 -0.48499,0.0799 c -0.2668,0.0439 -0.60942,0.0926 -0.76153,0.10807 l -0.2765,0.0282 -0.0158,0.2417 c -0.0232,0.3566 -0.0266,0.35778 -0.10661,0.0446 l -0.0741,-0.28811 -0.21359,-0.0501 c -0.15272,-0.0358 -0.27519,-0.0935 -0.43,-0.2025 l -0.21651,-0.15244 -0.11093,0.11473 c -0.10041,0.10378 -0.10921,0.10746 -0.0935,0.0388 0.008,-0.0417 0.0229,-0.17893 0.0305,-0.30491 0.0192,-0.34808 -0.0573,-0.50189 -0.37017,-0.74363 z m 0.42574,2.60391 c -0.007,-8.2e-4 -0.008,6.7e-4 -0.008,0.007 0.006,0.13493 0.39968,0.95486 0.62843,1.30601 0.14852,0.228 0.42615,0.48826 0.79293,0.74334 0.22912,0.15935 0.29532,0.18769 0.61868,0.26466 0.27349,0.0651 0.42745,0.0845 0.62947,0.0792 0.14701,-0.005 0.2671,-0.014 0.26675,-0.0223 -2.9e-4,-0.008 -0.0905,-0.12821 -0.20033,-0.26616 l -0.19963,-0.25079 -0.20694,0.006 c -0.14438,0.005 -0.29771,-0.0204 -0.50666,-0.0799 -0.27974,-0.0797 -0.31415,-0.0989 -0.51737,-0.29086 -0.26164,-0.24716 -0.42329,-0.49442 -0.49799,-0.76169 -0.0403,-0.1448 -0.0772,-0.20986 -0.13614,-0.24134 -0.19106,-0.10201 -0.44547,-0.28718 -0.5549,-0.40389 -0.0489,-0.0519 -0.0903,-0.0856 -0.10773,-0.0889 z m 5.46864,1.79001 0.04,0.0907 c 0.022,0.0498 0.041,0.10128 0.041,0.11425 -2e-4,0.0234 -0.3423,0.10724 -0.67149,0.16407 -0.2527,0.0437 -0.4749,0.0489 -0.74347,0.0175 -0.22018,-0.0256 -0.25296,-0.0394 -0.4124,-0.17386 -0.15087,-0.12717 -0.16196,-0.14411 -0.0859,-0.13121 0.49371,0.0836 1.28959,0.0681 1.65356,-0.0323 z" />
      </g>
      <g
         id="g43668"
         inkscape:export-filename="/home/wemeet/projects/personal/kelvin.id/src/static/brand/kelvin_id_logo_dark.png"
         inkscape:export-xdpi="80"
         inkscape:export-ydpi="80"
         style="fill:#ffcc00">
        <text
           xml:space="preserve"
           style="font-style:normal;font-variant:normal;font-weight:300;font-stretch:normal;font-size:21.1249px;line-height:1.25;font-family:Merienda;-inkscape-font-specification:'Merienda Light';letter-spacing:0px;word-spacing:0px;fill:#ffcc00;fill-opacity:1;stroke-width:0.282919"
           x="128.12619"
           y="75.333488"
           id="text3634-3-31-5-1-7-6"
           transform="scale(0.93507906,1.0694283)"><tspan
             sodipodi:role="line"
             id="tspan3632-6-9-3-8-8-2"
             style="font-style:normal;font-variant:normal;font-weight:normal;font-stretch:normal;font-family:'Linden Hill';-inkscape-font-specification:'Linden Hill';fill:#ffcc00;fill-opacity:1;stroke-width:0.282919"
             x="128.12619"
             y="75.333488">iD</tspan></text>
        <text
           xml:space="preserve"
           style="font-style:normal;font-variant:normal;font-weight:300;font-stretch:normal;font-size:18.9655px;line-height:1.25;font-family:Merienda;-inkscape-font-specification:'Merienda Light';letter-spacing:0px;word-spacing:0px;fill:#ffcc00;fill-opacity:1;stroke-width:0.253999"
           x="119.03452"
           y="78.522362"
           id="text3634-3-31-5-2-7-4-9"
           transform="scale(0.97430837,1.0263691)"><tspan
             sodipodi:role="line"
             id="tspan3632-6-9-3-7-9-5-1"
             style="font-style:normal;font-variant:normal;font-weight:normal;font-stretch:normal;font-family:'Linden Hill';-inkscape-font-specification:'Linden Hill';fill:#ffcc00;fill-opacity:1;stroke-width:0.253999"
             x="119.03452"
             y="78.522362">.</tspan></text>
      </g>
      <g
         id="g87389-3-2"
         transform="matrix(1,0,0,0.72731405,-892.97299,-38.307743)"
         style="fill:#ffcc00;fill-opacity:1"
         inkscape:export-filename="/home/wemeet/projects/personal/kelvin.id/src/static/brand/kelvin_id_logo_dark.png"
         inkscape:export-xdpi="80"
         inkscape:export-ydpi="80">
        <text
           xml:space="preserve"
           style="font-style:normal;font-variant:normal;font-weight:300;font-stretch:normal;font-size:25.8885px;line-height:1.25;font-family:Merienda;-inkscape-font-specification:'Merienda Light';letter-spacing:0px;word-spacing:0px;fill:#ffcc00;fill-opacity:1;stroke-width:0.346717"
           x="1143.6879"
           y="136.14253"
           id="text3634-3-31-5-2-73-7"
           transform="scale(0.83345454,1.1998255)"><tspan
             sodipodi:role="line"
             id="tspan3632-6-9-3-7-6-0"
             style="font-style:normal;font-variant:normal;font-weight:normal;font-stretch:normal;font-family:'Linden Hill';-inkscape-font-specification:'Linden Hill';fill:#ffcc00;fill-opacity:1;stroke-width:0.346717"
             x="1143.6879"
             y="136.14253">Kelvin</tspan></text>
      </g>
    </g>
  </g>
</svg>
